<svg width="12" height="17" viewBox="0 0 12 17" fill="none" xmlns="http://www.w3.org/2000/svg">
<path d="M5.29162 0.351943C3.63801 -0.0533531 2.03304 0.0682358 0.614499 0.578909C0.0308717 0.789664 -0.123141 1.56783 0.363215 1.96502C1.2893 2.72185 2.03529 3.67535 2.54704 4.75634C3.0588 5.83733 3.32348 7.01869 3.32188 8.2147C3.32348 9.4107 3.0588 10.5921 2.54704 11.673C2.03529 12.754 1.2893 13.7075 0.363215 14.4644C-0.115035 14.8616 0.0227658 15.6397 0.614499 15.8424C1.45752 16.1504 2.37349 16.3206 3.32188 16.3206C8.22597 16.3206 12.1168 11.9596 11.3224 6.91775C10.828 3.74022 8.4124 1.1139 5.29162 0.351943Z" fill="#F3F3F3"/>
</svg>
