<svg width="17" height="17" viewBox="0 0 17 17" fill="none" xmlns="http://www.w3.org/2000/svg">
<path d="M7.71702 16.1237V14.1297C7.71702 14.002 7.76776 13.8795 7.85808 13.7892C7.94839 13.6989 8.07089 13.6481 8.19862 13.6481C8.32635 13.6481 8.44885 13.6989 8.53916 13.7892C8.62948 13.8795 8.68022 14.002 8.68022 14.1297V16.1237C8.68022 16.2514 8.62948 16.3739 8.53916 16.4642C8.44885 16.5546 8.32635 16.6053 8.19862 16.6053C8.07089 16.6053 7.94839 16.5546 7.85808 16.4642C7.76776 16.3739 7.71702 16.2514 7.71702 16.1237ZM13.249 14.2297L11.8393 12.8207C11.7927 12.7764 11.7555 12.7233 11.7297 12.6644C11.704 12.6055 11.6903 12.542 11.6894 12.4777C11.6886 12.4134 11.7007 12.3496 11.7249 12.2901C11.7491 12.2305 11.785 12.1764 11.8305 12.131C11.8759 12.0855 11.93 12.0496 11.9896 12.0254C12.0491 12.0012 12.1129 11.9891 12.1772 11.9899C12.2415 11.9908 12.305 12.0045 12.3639 12.0302C12.4228 12.0559 12.4759 12.0932 12.5202 12.1398L13.9285 13.5509C14.0075 13.6432 14.0485 13.762 14.0436 13.8834C14.0386 14.0048 13.9879 14.1198 13.9017 14.2054C13.8155 14.291 13.7001 14.3409 13.5787 14.345C13.4573 14.3491 13.3388 14.3072 13.247 14.2277L13.2477 14.2284L13.249 14.2297ZM2.46735 14.2297C2.42242 14.1851 2.38676 14.1321 2.36243 14.0737C2.33809 14.0152 2.32556 13.9526 2.32556 13.8893C2.32556 13.826 2.33809 13.7633 2.36243 13.7049C2.38676 13.6465 2.42242 13.5934 2.46735 13.5488L3.87704 12.1392C3.92131 12.0925 3.97447 12.0553 4.03338 12.0295C4.09229 12.0038 4.15575 11.9901 4.22004 11.9893C4.28432 11.9884 4.34812 12.0005 4.40767 12.0247C4.46722 12.0489 4.52132 12.0848 4.56678 12.1303C4.61224 12.1757 4.64814 12.2298 4.67236 12.2894C4.69657 12.3489 4.70863 12.4127 4.7078 12.477C4.70697 12.5413 4.69328 12.6048 4.66754 12.6637C4.64179 12.7226 4.60451 12.7758 4.5579 12.82L3.14822 14.229C3.10364 14.274 3.0506 14.3096 2.99217 14.334C2.93375 14.3583 2.87108 14.3708 2.80779 14.3708C2.74449 14.3708 2.68182 14.3583 2.6234 14.334C2.56497 14.3096 2.51193 14.2746 2.46735 14.2297ZM4.36066 8.49844C4.36066 7.48037 4.76509 6.504 5.48497 5.78412C6.20486 5.06423 7.18123 4.65981 8.1993 4.65981C9.21736 4.65981 10.1937 5.06423 10.9136 5.78412C11.6335 6.504 12.0379 7.48037 12.0379 8.49844C12.0379 9.51651 11.6335 10.4929 10.9136 11.2128C10.1937 11.9326 9.21736 12.3371 8.1993 12.3371C7.18123 12.3371 6.20486 11.9326 5.48497 11.2128C4.76509 10.4929 4.36066 9.51651 4.36066 8.49844ZM5.32319 8.49844C5.31489 8.88147 5.38317 9.2623 5.52401 9.61859C5.66485 9.97488 5.87543 10.2995 6.14338 10.5733C6.41134 10.8471 6.73128 11.0647 7.08443 11.2132C7.43759 11.3617 7.81685 11.4382 8.19997 11.4382C8.58309 11.4382 8.96235 11.3617 9.31551 11.2132C9.66867 11.0647 9.98861 10.8471 10.2566 10.5733C10.5245 10.2995 10.7351 9.97488 10.8759 9.61859C11.0168 9.2623 11.0851 8.88147 11.0767 8.49844C11.0604 7.74626 10.7502 7.03039 10.2125 6.50419C9.67475 5.97799 8.95232 5.68333 8.19997 5.68333C7.44762 5.68333 6.72519 5.97799 6.18747 6.50419C5.64974 7.03039 5.33949 7.74626 5.32319 8.49844ZM13.8279 8.98004C13.7646 8.98004 13.702 8.96758 13.6436 8.94338C13.5852 8.91918 13.5321 8.8837 13.4873 8.83898C13.4426 8.79426 13.4072 8.74117 13.383 8.68274C13.3587 8.62431 13.3463 8.56168 13.3463 8.49844C13.3463 8.43519 13.3587 8.37257 13.383 8.31414C13.4072 8.25571 13.4426 8.20262 13.4873 8.1579C13.5321 8.11317 13.5852 8.0777 13.6436 8.0535C13.702 8.02929 13.7646 8.01684 13.8279 8.01684H15.8218C15.8851 8.01684 15.9477 8.02929 16.0061 8.0535C16.0646 8.0777 16.1177 8.11317 16.1624 8.1579C16.2071 8.20262 16.2426 8.25571 16.2668 8.31414C16.291 8.37257 16.3034 8.43519 16.3034 8.49844C16.3034 8.56168 16.291 8.62431 16.2668 8.68274C16.2426 8.74117 16.2071 8.79426 16.1624 8.83898C16.1177 8.8837 16.0646 8.91918 16.0061 8.94338C15.9477 8.96758 15.8851 8.98004 15.8218 8.98004H13.8279ZM0.573368 8.98004C0.510124 8.98004 0.447498 8.96758 0.389067 8.94338C0.330637 8.91918 0.277545 8.8837 0.232824 8.83898C0.188103 8.79426 0.152629 8.74117 0.128426 8.68274C0.104223 8.62431 0.0917664 8.56168 0.0917664 8.49844C0.0917664 8.43519 0.104223 8.37257 0.128426 8.31414C0.152629 8.25571 0.188103 8.20262 0.232824 8.1579C0.277545 8.11317 0.330637 8.0777 0.389067 8.0535C0.447498 8.02929 0.510124 8.01684 0.573368 8.01684H2.568C2.63124 8.01684 2.69387 8.02929 2.7523 8.0535C2.81073 8.0777 2.86382 8.11317 2.90854 8.1579C2.95326 8.20262 2.98874 8.25571 3.01294 8.31414C3.03714 8.37257 3.0496 8.43519 3.0496 8.49844C3.0496 8.56168 3.03714 8.62431 3.01294 8.68274C2.98874 8.74117 2.95326 8.79426 2.90854 8.83898C2.86382 8.8837 2.81073 8.91918 2.7523 8.94338C2.69387 8.96758 2.63124 8.98004 2.568 8.98004H0.573368ZM11.838 4.85772C11.7931 4.81314 11.7574 4.7601 11.7331 4.70168C11.7087 4.64325 11.6962 4.58058 11.6962 4.51729C11.6962 4.45399 11.7087 4.39133 11.7331 4.3329C11.7574 4.27447 11.7931 4.22144 11.838 4.17686L13.2477 2.76717C13.2919 2.72056 13.3451 2.68328 13.404 2.65754C13.4629 2.63179 13.5264 2.6181 13.5907 2.61727C13.655 2.61645 13.7188 2.6285 13.7783 2.65272C13.8379 2.67694 13.892 2.71283 13.9374 2.75829C13.9829 2.80375 14.0188 2.85785 14.043 2.9174C14.0672 2.97696 14.0793 3.04075 14.0784 3.10504C14.0776 3.16932 14.0639 3.23279 14.0382 3.2917C14.0124 3.3506 13.9752 3.40376 13.9285 3.44804L12.5189 4.85772C12.4743 4.90265 12.4212 4.93831 12.3628 4.96264C12.3044 4.98698 12.2417 4.99951 12.1784 4.99951C12.1151 4.99951 12.0525 4.98698 11.994 4.96264C11.9356 4.93831 11.8826 4.90265 11.838 4.85772ZM3.87569 4.85772L2.46735 3.44939C2.42074 3.40511 2.38346 3.35196 2.35772 3.29305C2.33197 3.23414 2.31828 3.17067 2.31746 3.10639C2.31663 3.0421 2.32868 2.97831 2.3529 2.91875C2.37712 2.8592 2.41301 2.8051 2.45847 2.75964C2.50393 2.71418 2.55803 2.67829 2.61758 2.65407C2.67714 2.62985 2.74093 2.6178 2.80522 2.61863C2.8695 2.61945 2.93297 2.63314 2.99188 2.65889C3.05079 2.68463 3.10394 2.72191 3.14822 2.76852L4.5579 4.17821C4.60451 4.22248 4.64179 4.27564 4.66754 4.33455C4.69328 4.39345 4.70697 4.45692 4.7078 4.5212C4.70863 4.58549 4.69657 4.64929 4.67236 4.70884C4.64814 4.76839 4.61224 4.82249 4.56678 4.86795C4.52132 4.91341 4.46722 4.94931 4.40767 4.97352C4.34812 4.99774 4.28432 5.0098 4.22004 5.00897C4.15575 5.00814 4.09229 4.99445 4.03338 4.96871C3.97447 4.94296 3.92131 4.90568 3.87704 4.85907L3.87569 4.85772ZM7.71567 2.86917V0.875889C7.71567 0.74816 7.76641 0.625663 7.85673 0.535345C7.94704 0.445027 8.06954 0.394287 8.19727 0.394287C8.325 0.394287 8.4475 0.445027 8.53781 0.535345C8.62813 0.625663 8.67887 0.74816 8.67887 0.875889V2.86984C8.67887 2.99757 8.62813 3.12007 8.53781 3.21039C8.4475 3.3007 8.325 3.35144 8.19727 3.35144C8.06954 3.35144 7.94704 3.3007 7.85673 3.21039C7.76641 3.12007 7.71567 2.9969 7.71567 2.86917Z" fill="#3C6E71"/>
</svg>
